<mxfile host="www.draw.io" modified="2019-12-16T12:16:39.863Z" agent="Mozilla/5.0 (Windows NT 10.0; Win64; x64) AppleWebKit/537.36 (KHTML, like Gecko) Chrome/79.0.3945.79 Safari/537.36" etag="paHG5oC2a2i6tbVhoJFK" version="12.4.2" type="github" pages="1">
  <diagram id="HozCwNSfqqugQ0Yzk6nG" name="Page-1">
    <mxGraphModel dx="1986" dy="1148" grid="1" gridSize="10" guides="1" tooltips="1" connect="1" arrows="1" fold="1" page="1" pageScale="1" pageWidth="1100" pageHeight="850" math="0" shadow="0">
      <root>
        <mxCell id="0"/>
        <mxCell id="1" parent="0"/>
        <mxCell id="-FQGyZQafQDy_hneOG7Y-9" value="Central BFD Monitor" style="rounded=1;whiteSpace=wrap;html=1;fillColor=#008a00;strokeColor=none;fontColor=#ffffff;gradientColor=none;shadow=1;" vertex="1" parent="1">
          <mxGeometry x="320" y="360" width="150" height="70" as="geometry"/>
        </mxCell>
        <mxCell id="-FQGyZQafQDy_hneOG7Y-12" value="" style="group" vertex="1" connectable="0" parent="1">
          <mxGeometry x="180" y="80" width="120" height="170" as="geometry"/>
        </mxCell>
        <mxCell id="-FQGyZQafQDy_hneOG7Y-10" value="" style="rounded=0;whiteSpace=wrap;html=1;" vertex="1" parent="-FQGyZQafQDy_hneOG7Y-12">
          <mxGeometry y="20" width="120" height="150" as="geometry"/>
        </mxCell>
        <mxCell id="-FQGyZQafQDy_hneOG7Y-1" value="OVS" style="rounded=1;whiteSpace=wrap;html=1;fillColor=#dae8fc;strokeColor=none;" vertex="1" parent="-FQGyZQafQDy_hneOG7Y-12">
          <mxGeometry x="30.659999999999997" y="40" width="80" height="40" as="geometry"/>
        </mxCell>
        <mxCell id="-FQGyZQafQDy_hneOG7Y-2" value="BFD&lt;br&gt;Agent" style="rounded=1;whiteSpace=wrap;html=1;fillColor=#d5e8d4;strokeColor=none;" vertex="1" parent="-FQGyZQafQDy_hneOG7Y-12">
          <mxGeometry x="50.66" y="120" width="40" height="40" as="geometry"/>
        </mxCell>
        <mxCell id="-FQGyZQafQDy_hneOG7Y-3" value="" style="shape=flexArrow;endArrow=classic;startArrow=classic;html=1;entryX=0.475;entryY=0.114;entryDx=0;entryDy=0;entryPerimeter=0;" edge="1" parent="-FQGyZQafQDy_hneOG7Y-12" target="-FQGyZQafQDy_hneOG7Y-2">
          <mxGeometry width="50" height="50" relative="1" as="geometry">
            <mxPoint x="71" y="80" as="sourcePoint"/>
            <mxPoint x="80.66" y="100" as="targetPoint"/>
          </mxGeometry>
        </mxCell>
        <mxCell id="-FQGyZQafQDy_hneOG7Y-7" value="" style="endArrow=classic;html=1;exitX=0;exitY=0.5;exitDx=0;exitDy=0;entryX=0;entryY=0.5;entryDx=0;entryDy=0;edgeStyle=orthogonalEdgeStyle;rounded=0;" edge="1" parent="-FQGyZQafQDy_hneOG7Y-12" source="-FQGyZQafQDy_hneOG7Y-2" target="-FQGyZQafQDy_hneOG7Y-1">
          <mxGeometry width="50" height="50" relative="1" as="geometry">
            <mxPoint x="20" y="310" as="sourcePoint"/>
            <mxPoint x="70" y="260" as="targetPoint"/>
            <Array as="points">
              <mxPoint x="20" y="140"/>
              <mxPoint x="20" y="60"/>
            </Array>
          </mxGeometry>
        </mxCell>
        <mxCell id="-FQGyZQafQDy_hneOG7Y-8" value="Config&lt;br&gt;Push" style="text;html=1;align=center;verticalAlign=middle;resizable=0;points=[];;labelBackgroundColor=#ffffff;" vertex="1" connectable="0" parent="-FQGyZQafQDy_hneOG7Y-7">
          <mxGeometry x="0.2598" y="-1" relative="1" as="geometry">
            <mxPoint as="offset"/>
          </mxGeometry>
        </mxCell>
        <mxCell id="-FQGyZQafQDy_hneOG7Y-11" value="Host" style="text;html=1;strokeColor=none;fillColor=none;align=center;verticalAlign=middle;whiteSpace=wrap;rounded=0;shadow=1;" vertex="1" parent="-FQGyZQafQDy_hneOG7Y-12">
          <mxGeometry width="40" height="20" as="geometry"/>
        </mxCell>
        <mxCell id="-FQGyZQafQDy_hneOG7Y-13" value="" style="group" vertex="1" connectable="0" parent="1">
          <mxGeometry x="330" y="80" width="120" height="170" as="geometry"/>
        </mxCell>
        <mxCell id="-FQGyZQafQDy_hneOG7Y-14" value="" style="rounded=0;whiteSpace=wrap;html=1;" vertex="1" parent="-FQGyZQafQDy_hneOG7Y-13">
          <mxGeometry y="20" width="120" height="150" as="geometry"/>
        </mxCell>
        <mxCell id="-FQGyZQafQDy_hneOG7Y-15" value="OVS" style="rounded=1;whiteSpace=wrap;html=1;fillColor=#dae8fc;strokeColor=none;" vertex="1" parent="-FQGyZQafQDy_hneOG7Y-13">
          <mxGeometry x="30.659999999999997" y="40" width="80" height="40" as="geometry"/>
        </mxCell>
        <mxCell id="-FQGyZQafQDy_hneOG7Y-16" value="BFD&lt;br&gt;Agent" style="rounded=1;whiteSpace=wrap;html=1;fillColor=#d5e8d4;strokeColor=none;" vertex="1" parent="-FQGyZQafQDy_hneOG7Y-13">
          <mxGeometry x="50.66" y="120" width="40" height="40" as="geometry"/>
        </mxCell>
        <mxCell id="-FQGyZQafQDy_hneOG7Y-17" value="" style="shape=flexArrow;endArrow=classic;startArrow=classic;html=1;entryX=0.475;entryY=0.114;entryDx=0;entryDy=0;entryPerimeter=0;" edge="1" parent="-FQGyZQafQDy_hneOG7Y-13" target="-FQGyZQafQDy_hneOG7Y-16">
          <mxGeometry width="50" height="50" relative="1" as="geometry">
            <mxPoint x="71" y="80" as="sourcePoint"/>
            <mxPoint x="80.66" y="100" as="targetPoint"/>
          </mxGeometry>
        </mxCell>
        <mxCell id="-FQGyZQafQDy_hneOG7Y-18" value="" style="endArrow=classic;html=1;exitX=0;exitY=0.5;exitDx=0;exitDy=0;entryX=0;entryY=0.5;entryDx=0;entryDy=0;edgeStyle=orthogonalEdgeStyle;rounded=0;" edge="1" parent="-FQGyZQafQDy_hneOG7Y-13" source="-FQGyZQafQDy_hneOG7Y-16" target="-FQGyZQafQDy_hneOG7Y-15">
          <mxGeometry width="50" height="50" relative="1" as="geometry">
            <mxPoint x="20" y="310" as="sourcePoint"/>
            <mxPoint x="70" y="260" as="targetPoint"/>
            <Array as="points">
              <mxPoint x="20" y="140"/>
              <mxPoint x="20" y="60"/>
            </Array>
          </mxGeometry>
        </mxCell>
        <mxCell id="-FQGyZQafQDy_hneOG7Y-19" value="Config&lt;br&gt;Push" style="text;html=1;align=center;verticalAlign=middle;resizable=0;points=[];;labelBackgroundColor=#ffffff;" vertex="1" connectable="0" parent="-FQGyZQafQDy_hneOG7Y-18">
          <mxGeometry x="0.2598" y="-1" relative="1" as="geometry">
            <mxPoint as="offset"/>
          </mxGeometry>
        </mxCell>
        <mxCell id="-FQGyZQafQDy_hneOG7Y-20" value="Host" style="text;html=1;strokeColor=none;fillColor=none;align=center;verticalAlign=middle;whiteSpace=wrap;rounded=0;shadow=1;" vertex="1" parent="-FQGyZQafQDy_hneOG7Y-13">
          <mxGeometry width="40" height="20" as="geometry"/>
        </mxCell>
        <mxCell id="-FQGyZQafQDy_hneOG7Y-29" value="" style="group" vertex="1" connectable="0" parent="1">
          <mxGeometry x="560" y="90" width="120" height="170" as="geometry"/>
        </mxCell>
        <mxCell id="-FQGyZQafQDy_hneOG7Y-30" value="" style="rounded=0;whiteSpace=wrap;html=1;" vertex="1" parent="-FQGyZQafQDy_hneOG7Y-29">
          <mxGeometry y="20" width="120" height="150" as="geometry"/>
        </mxCell>
        <mxCell id="-FQGyZQafQDy_hneOG7Y-31" value="OVS" style="rounded=1;whiteSpace=wrap;html=1;fillColor=#dae8fc;strokeColor=none;" vertex="1" parent="-FQGyZQafQDy_hneOG7Y-29">
          <mxGeometry x="30.659999999999997" y="40" width="80" height="40" as="geometry"/>
        </mxCell>
        <mxCell id="-FQGyZQafQDy_hneOG7Y-32" value="BFD&lt;br&gt;Agent" style="rounded=1;whiteSpace=wrap;html=1;fillColor=#d5e8d4;strokeColor=none;" vertex="1" parent="-FQGyZQafQDy_hneOG7Y-29">
          <mxGeometry x="50.66" y="120" width="40" height="40" as="geometry"/>
        </mxCell>
        <mxCell id="-FQGyZQafQDy_hneOG7Y-33" value="" style="shape=flexArrow;endArrow=classic;startArrow=classic;html=1;entryX=0.475;entryY=0.114;entryDx=0;entryDy=0;entryPerimeter=0;" edge="1" parent="-FQGyZQafQDy_hneOG7Y-29" target="-FQGyZQafQDy_hneOG7Y-32">
          <mxGeometry width="50" height="50" relative="1" as="geometry">
            <mxPoint x="71" y="80" as="sourcePoint"/>
            <mxPoint x="80.66" y="100" as="targetPoint"/>
          </mxGeometry>
        </mxCell>
        <mxCell id="-FQGyZQafQDy_hneOG7Y-34" value="" style="endArrow=classic;html=1;exitX=0;exitY=0.5;exitDx=0;exitDy=0;entryX=0;entryY=0.5;entryDx=0;entryDy=0;edgeStyle=orthogonalEdgeStyle;rounded=0;" edge="1" parent="-FQGyZQafQDy_hneOG7Y-29" source="-FQGyZQafQDy_hneOG7Y-32" target="-FQGyZQafQDy_hneOG7Y-31">
          <mxGeometry width="50" height="50" relative="1" as="geometry">
            <mxPoint x="20" y="310" as="sourcePoint"/>
            <mxPoint x="70" y="260" as="targetPoint"/>
            <Array as="points">
              <mxPoint x="20" y="140"/>
              <mxPoint x="20" y="60"/>
            </Array>
          </mxGeometry>
        </mxCell>
        <mxCell id="-FQGyZQafQDy_hneOG7Y-35" value="Config&lt;br&gt;Push" style="text;html=1;align=center;verticalAlign=middle;resizable=0;points=[];;labelBackgroundColor=#ffffff;" vertex="1" connectable="0" parent="-FQGyZQafQDy_hneOG7Y-34">
          <mxGeometry x="0.2598" y="-1" relative="1" as="geometry">
            <mxPoint as="offset"/>
          </mxGeometry>
        </mxCell>
        <mxCell id="-FQGyZQafQDy_hneOG7Y-36" value="Host" style="text;html=1;strokeColor=none;fillColor=none;align=center;verticalAlign=middle;whiteSpace=wrap;rounded=0;shadow=1;" vertex="1" parent="-FQGyZQafQDy_hneOG7Y-29">
          <mxGeometry width="40" height="20" as="geometry"/>
        </mxCell>
        <mxCell id="-FQGyZQafQDy_hneOG7Y-38" value="" style="endArrow=none;dashed=1;html=1;" edge="1" parent="1">
          <mxGeometry width="50" height="50" relative="1" as="geometry">
            <mxPoint x="480" y="174.71" as="sourcePoint"/>
            <mxPoint x="540" y="175" as="targetPoint"/>
          </mxGeometry>
        </mxCell>
      </root>
    </mxGraphModel>
  </diagram>
</mxfile>
